<svg id="Capa_1" enable-background="new 0 0 512.002 512.002" height="512" viewBox="0 0 512.002 512.002" width="512" xmlns="http://www.w3.org/2000/svg"><g><g><path d="m365.362 451.902c0 6.572-5.328 11.9-11.9 11.9h-311.06l-.003-456.3h322.963z" fill="#aa6a51"/><path d="m365.362 451.902c0 6.57-5.33 11.9-11.9 11.9h-27.01c6.57 0 11.9-5.33 11.9-11.9v-432.5c0-.54-.04-1.07-.11-1.59-.74-5.56-5.32-9.9-10.98-10.28-.27-.02-.54-.03-.81-.03h38.91z" fill="#935b44"/><path d="m469.602 86.562.003 417.94h-295.819l-.004-310.03 179.887-10.47 11.683-97.44z" fill="#ddeafb"/><path d="m469.603 86.558h-36.733c6.165 0 11.162 4.998 11.162 11.162v395.62c0 6.165-4.997 11.162-11.162 11.162h36.735v-417.942c-.001 0-.001-.001-.002-.002z" fill="#cbe2ff"/><path d="m214.301 377.18h46.411l29.115-4.845 29.115 4.845h46.415v-151.056h-151.056z" fill="#fff9df"/><path d="m329.116 226.124c6.165 0 11.162 4.998 11.162 11.162v128.731c0 6.165-4.998 11.162-11.162 11.162h36.241v-151.055z" fill="#fff0ad"/><path d="m318.943 377.18h-58.227v-41.888c0-15.182 12.307-27.489 27.489-27.489h3.249c15.182 0 27.489 12.307 27.489 27.489z" fill="#82aee3"/><path d="m318.942 335.292v41.89h-58.23v-41.89c0-11.68 7.28-21.66 17.56-25.63 3.08-1.2 6.43-1.86 9.93-1.86h3.25c15.18 0 27.49 12.31 27.49 27.49z" fill="#82aee3"/><path d="m291.452 307.802h-3.25c-3.5 0-6.85.66-9.93 1.86-.285.11-.559.242-.84.361 9.794 4.206 16.657 13.936 16.657 25.269v41.89h24.853v-41.89c0-15.18-12.31-27.49-27.49-27.49z" fill="#528fd8"/><path d="m291.119 307.803h-2.581c-12.059 0-21.835-9.776-21.835-21.835v-2.581c0-12.059 9.776-21.835 21.835-21.835h2.581c12.059 0 21.835 9.776 21.835 21.835v2.581c.001 12.059-9.775 21.835-21.835 21.835z" fill="#ffcebf"/><path d="m291.119 261.551h-2.581c-3.307 0-6.44.739-9.249 2.055 7.435 3.482 12.587 11.028 12.587 19.781v2.581c0 8.753-5.152 16.298-12.587 19.781 2.809 1.316 5.942 2.055 9.249 2.055h2.581c12.059 0 21.835-9.776 21.835-21.835v-2.581c.001-12.06-9.775-21.837-21.835-21.837z" fill="#ffb09e"/><path d="m214.301 412.357h75.528v30.497h-75.528z" fill="#ffd15b"/><path d="m365.352 86.562v96.75c0 6.16-4.99 11.16-11.16 11.16h-180.41v-107.91z" fill="#82aee3"/><path d="m338.354 86.558v96.752c0 6.165-4.998 11.162-11.162 11.162h27.002c6.165 0 11.162-4.998 11.162-11.162v-96.752z" fill="#528fd8"/></g><g><path d="m214.301 384.68h46.414 58.228 46.414c4.143 0 7.5-3.358 7.5-7.5v-151.056c0-4.142-3.357-7.5-7.5-7.5h-151.056c-4.143 0-7.5 3.358-7.5 7.5v151.056c0 4.142 3.357 7.5 7.5 7.5zm53.914-15v-34.388c0-11.022 8.967-19.989 19.989-19.989h.334 2.581.334c11.022 0 19.989 8.967 19.989 19.989v34.388zm37.239-83.713c0 7.905-6.431 14.335-14.335 14.335h-2.581c-7.904 0-14.335-6.431-14.335-14.335v-2.581c0-7.905 6.431-14.335 14.335-14.335h2.581c7.904 0 14.335 6.431 14.335 14.335zm-83.653-52.343h136.056v136.056h-31.414v-34.388c0-11.735-5.813-22.131-14.704-28.482 5.378-5.32 8.716-12.698 8.716-20.843v-2.581c0-16.176-13.159-29.335-29.335-29.335h-2.581c-16.176 0-29.335 13.16-29.335 29.335v2.581c0 8.145 3.339 15.522 8.716 20.843-8.891 6.351-14.704 16.747-14.704 28.482v34.388h-31.414v-136.056z"/><path d="m436.903 134.657h-38.099c-4.143 0-7.5 3.358-7.5 7.5s3.357 7.5 7.5 7.5h38.099c4.143 0 7.5-3.358 7.5-7.5s-3.357-7.5-7.5-7.5z"/><path d="m436.903 254.051h-38.099c-4.143 0-7.5 3.358-7.5 7.5s3.357 7.5 7.5 7.5h38.099c4.143 0 7.5-3.358 7.5-7.5s-3.357-7.5-7.5-7.5z"/><path d="m436.903 294.296h-38.099c-4.143 0-7.5 3.358-7.5 7.5s3.357 7.5 7.5 7.5h38.099c4.143 0 7.5-3.358 7.5-7.5s-3.357-7.5-7.5-7.5z"/><path d="m436.903 334.992h-38.099c-4.143 0-7.5 3.358-7.5 7.5s3.357 7.5 7.5 7.5h38.099c4.143 0 7.5-3.358 7.5-7.5s-3.357-7.5-7.5-7.5z"/><path d="m206.801 442.854c0 4.142 3.357 7.5 7.5 7.5h75.528c4.143 0 7.5-3.358 7.5-7.5v-30.497c0-4.142-3.357-7.5-7.5-7.5h-75.528c-4.143 0-7.5 3.358-7.5 7.5zm15-22.997h60.528v15.497h-60.528z"/><path d="m436.903 420.105h-111.534c-4.143 0-7.5 3.358-7.5 7.5s3.357 7.5 7.5 7.5h111.534c4.143 0 7.5-3.358 7.5-7.5s-3.357-7.5-7.5-7.5z"/><path d="m214.787 478.324h222.116c4.143 0 7.5-3.358 7.5-7.5s-3.357-7.5-7.5-7.5h-222.116c-4.143 0-7.5 3.358-7.5 7.5s3.358 7.5 7.5 7.5z"/><path d="m469.605 133.374c4.143 0 7.5-3.358 7.5-7.5v-39.316c0-4.142-3.357-7.5-7.5-7.5h-96.744v-71.556c.05-3.835-3.316-7.604-7.5-7.5h-322.961c-3.834-.049-7.604 3.315-7.5 7.5v456.299c0 4.142 3.357 7.5 7.5 7.5h96.691c4.143 0 7.5-3.358 7.5-7.5s-3.357-7.5-7.5-7.5h-89.191v-432.055l116.386 103.852v376.404c0 4.142 3.357 7.5 7.5 7.5h295.819c4.143 0 7.5-3.358 7.5-7.5v-343.5c0-4.142-3.357-7.5-7.5-7.5s-7.5 3.358-7.5 7.5v336h-280.82v-295.03h184.071c4.143 0 7.5-3.358 7.5-7.5v-100.414h89.248v31.816c.001 4.142 3.358 7.5 7.501 7.5zm-407.536-118.372h284.166l-41.958 38.888c-3.037 2.815-3.218 7.561-.402 10.599 1.479 1.595 3.487 2.402 5.503 2.402 1.824 0 3.653-.662 5.097-2l43.386-40.211v54.379h-184.076c-4.143 0-7.5 3.358-7.5 7.5v21.436zm295.788 171.97h-176.572v-92.914h176.571v92.914z"/><path d="m241.928 173.165c6.879 0 13.065-2.271 17.891-6.568 10.04-6.972-.387-21.987-9.978-11.201-2.063 1.837-4.725 2.769-7.913 2.769-8.827 0-16.008-7.181-16.008-16.007s7.181-16.007 16.008-16.007c3.208 0 6.301.944 8.944 2.729 3.432 2.319 8.094 1.416 10.413-2.017 2.318-3.432 1.416-8.094-2.017-10.413-5.132-3.467-11.129-5.3-17.341-5.3-17.098 0-31.008 13.91-31.008 31.007.001 17.098 13.911 31.008 31.009 31.008z"/><path d="m290.114 167.47c1.213 3.412 4.45 5.695 8.067 5.695h.057c3.641-.024 6.874-2.355 8.065-5.855l15.351-46.208c1.307-3.931-.822-8.176-4.753-9.482-3.928-1.306-8.176.822-9.481 4.753l-9.372 28.21-9.855-28.392c-1.357-3.913-5.633-5.984-9.544-4.626-3.913 1.358-5.984 5.632-4.626 9.545z"/></g></g></svg>